<?xml version="1.0" encoding="iso-8859-1"?>
<!-- Generator: Adobe Illustrator 16.0.0, SVG Export Plug-In . SVG Version: 6.00 Build 0)  -->
<!DOCTYPE svg PUBLIC "-//W3C//DTD SVG 1.1//EN" "http://www.w3.org/Graphics/SVG/1.1/DTD/svg11.dtd">
<svg version="1.1" id="Capa_1" xmlns="http://www.w3.org/2000/svg" xmlns:xlink="http://www.w3.org/1999/xlink" x="0px" y="0px"
	 width="65.048px" height="65.047px" viewBox="0 0 65.048 65.047" style="enable-background:new 0 0 65.048 65.047;"
	 xml:space="preserve">
<g>
	<g>
		<path style="fill:#fff;" d="M58.375,0H6.672C2.993,0,0,2.994,0,6.672v51.703c0,3.68,2.993,6.672,6.672,6.672h51.704c3.681,0,6.672-2.992,6.672-6.672
			V6.672C65.047,2.994,62.057,0,58.375,0z M61.711,58.375c0,1.84-1.496,3.336-3.336,3.336H6.672c-1.839,0-3.336-1.496-3.336-3.336
			V6.672c0-1.84,1.497-3.336,3.336-3.336h51.704c1.84,0,3.336,1.496,3.336,3.336L61.711,58.375L61.711,58.375z"/>
		<polygon style="fill:#fff;" points="45.004,23.582 41.465,20.042 32.524,28.984 23.582,20.042 20.042,23.583 28.984,32.523 20.041,41.467 
			23.58,45.006 32.523,36.063 41.467,45.007 45.006,41.467 36.062,32.523 		"/>
	</g>
</g>
<g>
</g>
<g>
</g>
<g>
</g>
<g>
</g>
<g>
</g>
<g>
</g>
<g>
</g>
<g>
</g>
<g>
</g>
<g>
</g>
<g>
</g>
<g>
</g>
<g>
</g>
<g>
</g>
<g>
</g>
</svg>
